<svg xmlns="http://www.w3.org/2000/svg" width="37.391" height="35.717" viewBox="0 0 37.391 35.717">
  <g id="noun_new_1693260" transform="translate(-6 -7.074)">
    <g id="Group_198" data-name="Group 198" transform="translate(6 7.075)">
      <g id="Group_193" data-name="Group 193">
        <path id="Path_1774" data-name="Path 1774" d="M29.984,8.625l1.862,3.931a3.09,3.09,0,0,0,2.407,1.749l4.305.543-.8,4.278a3.091,3.091,0,0,0,.918,2.825l3.162,2.972-3.162,2.991a3.091,3.091,0,0,0-.918,2.825L38.568,35l-4.316.558a3.09,3.09,0,0,0-2.407,1.749L30,41.234l-3.818-2.087a3.1,3.1,0,0,0-2.977,0l-3.8,2.093-1.862-3.932a3.09,3.09,0,0,0-2.407-1.749l-4.305-.543.8-4.278a3.091,3.091,0,0,0-.918-2.825L7.554,24.942l3.162-2.991a3.091,3.091,0,0,0,.918-2.825l-.812-4.262,4.316-.558a3.09,3.09,0,0,0,2.407-1.749L19.4,8.638l3.806,2.081a3.1,3.1,0,0,0,2.977,0l3.8-2.093M19.4,7.075a1.545,1.545,0,0,0-1.4.884L16.137,11.89a1.545,1.545,0,0,1-1.2.871l-4.316.558A1.545,1.545,0,0,0,9.3,15.135l.8,4.278a1.545,1.545,0,0,1-.457,1.407L6.483,23.81a1.545,1.545,0,0,0,0,2.245l3.162,2.99a1.545,1.545,0,0,1,.457,1.407L9.3,34.73a1.545,1.545,0,0,0,1.321,1.816l4.316.558a1.545,1.545,0,0,1,1.2.871L18,41.907a1.544,1.544,0,0,0,2.137.694l3.818-2.087a1.545,1.545,0,0,1,1.482,0L29.255,42.6a1.544,1.544,0,0,0,2.137-.694l1.862-3.931a1.545,1.545,0,0,1,1.2-.871l4.316-.558a1.545,1.545,0,0,0,1.321-1.816l-.8-4.278a1.545,1.545,0,0,1,.457-1.407l3.162-2.991a1.545,1.545,0,0,0,0-2.245l-3.162-2.99a1.545,1.545,0,0,1-.457-1.407l.8-4.278a1.545,1.545,0,0,0-1.32-1.816l-4.316-.558a1.545,1.545,0,0,1-1.2-.871L31.392,7.959a1.544,1.544,0,0,0-2.137-.694L25.436,9.352a1.545,1.545,0,0,1-1.482,0L20.136,7.264a1.537,1.537,0,0,0-.739-.19Z" transform="translate(-6 -7.075)" fill="red"/>
        <path id="Path_1778" data-name="Path 1778" d="M4.383,11.582l.49,2.371L3.088,15.82l-2,1.554,2,3.147,1.785,2.761L4.383,27l.49,1.891H8.862l1.294,1.1,1.685,2.657.926,1.848,1.2.354,1.31-.354.805-.508,1.749-1.34h1.4l1.888.776L23.184,34.5H24.37l1.109-1.848.734-1.8,1.113-.86,1.117-.606h1.443l3.051-.972-.4-2.845V22.623l1.193-2.1,1.9-1.725.677-1.423-2.58-2.489L32.533,13.2V9.767l.4-2.5-4.493-.658L26.8,5.829l-.969-1.908L24.924,1.64,23.813.859,21.631,2.127l-2.4.856-3.148-.856-2.116-.913h-1.2l-.482,1.77L11.34,4.723,10.156,6.608l-2.1-.342-1.431,1H4.383v4.316Z" fill="red"/>
      </g>
      <g id="Group_197" data-name="Group 197" transform="translate(8.2 14.513)">
        <g id="Group_194" data-name="Group 194">
          <path id="Path_1775" data-name="Path 1775" d="M21.8,25.705h-.849v5.253l-3.515-5.253h-.908V32.4h.849V27.138L20.89,32.4H21.8Z" transform="translate(-16.526 -25.705)" fill="#fff" stroke="#fff" stroke-width="0.5"/>
        </g>
        <g id="Group_195" data-name="Group 195" transform="translate(6.778)">
          <path id="Path_1776" data-name="Path 1776" d="M30.066,25.705H25.228V32.4h4.993v-.79H26.113V29.329h3.7v-.785h-3.7V26.495h3.953Z" transform="translate(-25.228 -25.705)" fill="#fff" stroke="#fff" stroke-width="0.5"/>
        </g>
        <g id="Group_196" data-name="Group 196" transform="translate(12.387)">
          <path id="Path_1777" data-name="Path 1777" d="M41.032,25.705h-.89L39.093,30q-.205.822-.333,1.456a17.945,17.945,0,0,0-.52-2.369l-.958-3.387H36.213l-1.273,4.519q-.046.164-.3,1.237-.119-.68-.283-1.369l-1.018-4.386h-.908L34.2,32.4h.9l1.419-5.1q.091-.324.2-.785.032.146.21.785l1.41,5.1H39.2l1.835-6.691Z" transform="translate(-32.429 -25.705)" fill="#fff" stroke="#fff" stroke-width="0.5"/>
        </g>
      </g>
    </g>
  </g>
</svg>
