<svg xmlns="http://www.w3.org/2000/svg" width="50" height="50" viewBox="0 0 50 50">
  <g id="Group_319" data-name="Group 319" transform="translate(-1474 -1803)">
    <g id="Group_318" data-name="Group 318">
      <g id="noun_offer_2743024" transform="translate(1469 1798)">
        <g id="Group_317" data-name="Group 317">
          <ellipse id="Ellipse_26" data-name="Ellipse 26" cx="3" cy="4" rx="3" ry="4" transform="translate(34.004 32.998)" fill="red"/>
          <ellipse id="Ellipse_27" data-name="Ellipse 27" cx="3" cy="4" rx="3" ry="4" transform="translate(20.004 18.998)" fill="red"/>
          <path id="Path_1839" data-name="Path 1839" d="M52.37,26.33c-.77-.62-1.64-1.32-1.78-1.85a5.709,5.709,0,0,1,.63-2.6c.58-1.52,1.19-3.09.44-4.39s-2.44-1.57-4.06-1.82a5.763,5.763,0,0,1-2.53-.74,5.646,5.646,0,0,1-.73-2.53c-.26-1.62-.52-3.29-1.83-4.05s-2.87-.15-4.39.43a5.709,5.709,0,0,1-2.6.63C35,9.27,34.29,8.4,33.67,7.63,32.68,6.4,31.55,5,30,5s-2.67,1.4-3.66,2.63c-.63.77-1.33,1.64-1.85,1.78a5.643,5.643,0,0,1-2.61-.63c-1.51-.58-3.08-1.19-4.38-.43s-1.58,2.43-1.83,4.05a5.647,5.647,0,0,1-.73,2.53,5.807,5.807,0,0,1-2.53.74c-1.62.25-3.3.51-4.06,1.82s-.14,2.87.44,4.39a5.708,5.708,0,0,1,.63,2.6c-.14.53-1.02,1.23-1.79,1.85C6.4,27.32,5,28.45,5,30s1.4,2.67,2.63,3.67c.77.62,1.65,1.32,1.79,1.84a5.85,5.85,0,0,1-.63,2.61c-.58,1.52-1.19,3.09-.44,4.38.76,1.31,2.44,1.58,4.06,1.83a5.688,5.688,0,0,1,2.53.73,5.732,5.732,0,0,1,.73,2.53c.25,1.62.52,3.3,1.83,4.06s2.86.15,4.38-.44a5.907,5.907,0,0,1,2.61-.63c.52.15,1.22,1.02,1.85,1.79C27.33,53.6,28.45,55,30,55s2.68-1.4,3.67-2.63c.62-.77,1.33-1.64,1.85-1.79a5.842,5.842,0,0,1,2.6.63c1.52.59,3.09,1.19,4.39.44s1.57-2.44,1.83-4.06a5.731,5.731,0,0,1,.73-2.53,5.777,5.777,0,0,1,2.53-.73c1.62-.25,3.3-.51,4.06-1.83.75-1.29.14-2.86-.44-4.38a5.709,5.709,0,0,1-.63-2.6c.14-.53,1.01-1.23,1.78-1.85C53.61,32.67,55,31.55,55,30S53.61,27.32,52.37,26.33ZM23,17c2.757,0,5,2.691,5,6s-2.243,6-5,6-5-2.691-5-6S20.247,17,23,17ZM20.711,40.7A1,1,0,0,1,19.3,39.291l20-20A1,1,0,0,1,40.711,20.7ZM37,43c-2.757,0-5-2.691-5-6s2.243-6,5-6,5,2.691,5,6S39.761,43,37,43Z" fill="red"/>
        </g>
      </g>
      <path id="Path_1840" data-name="Path 1840" d="M15.5,0A15.756,15.756,0,0,1,31,16c0,.256,2.142,5.032,2.114,5.582C32.744,29.767,23.812,32,15.5,32A15.756,15.756,0,0,1,0,16,15.756,15.756,0,0,1,15.5,0Z" transform="translate(1482 1811)" fill="red"/>
    </g>
    <text id="OFFER" transform="translate(1480 1832)" fill="#fff" font-size="12" font-family="OpenSans-Bold, Open Sans" font-weight="700"><tspan x="0" y="0">OFFER</tspan></text>
  </g>
</svg>
